{
  "accessors": [
    {
      "bufferView": 2,
      "componentType": 5126,
      "count": 65532,
      "max": [
        0.5593420267105103,
        4.560730934143066,
        0.2768769860267639
      ],
      "min": [
        -0.09928800165653229,
        4.037140846252441,
        -0.6184120178222656
      ],
      "type": "VEC3"
    },
    {
      "bufferView": 2,
      "byteOffset": 786384,
      "componentType": 5126,
      "count": 65532,
      "max": [
        0.9978653788566589,
        0.9999881386756897,
        0.9888466596603394
      ],
      "min": [
        -0.9999958872795105,
        -0.9999982118606567,
        -0.9999710917472839
      ],
      "type": "VEC3"
    },
    {
      "bufferView": 1,
      "componentType": 5126,
      "count": 65532,
      "max": [
        0.9771199822425842,
        0.9996219873428345
      ],
      "min": [
        0.09989900141954422,
        0.005216000135987997
      ],
      "type": "VEC2"
    },
    {
      "bufferView": 0,
      "componentType": 5125,
      "count": 351633,
      "type": "SCALAR"
    },
    {
      "bufferView": 2,
      "byteOffset": 1572768,
      "componentType": 5126,
      "count": 65532,
      "max": [
        0.7053239941596985,
        4.5740227699279785,
        0.38737401366233826
      ],
      "min": [
        -0.06986699998378754,
        4.037140846252441,
        -0.6095160245895386
      ],
      "type": "VEC3"
    },
    {
      "bufferView": 2,
      "byteOffset": 2359152,
      "componentType": 5126,
      "count": 65532,
      "max": [
        0.9999465346336365,
        0.9999746680259705,
        0.9998908638954163
      ],
      "min": [
        -0.9992082118988037,
        -0.9999977350234985,
        -0.9999710917472839
      ],
      "type": "VEC3"
    },
    {
      "bufferView": 1,
      "byteOffset": 524256,
      "componentType": 5126,
      "count": 65532,
      "max": [
        0.9687190055847168,
        0.9834719896316528
      ],
      "min": [
        0.0039029999170452356,
        0.014142000116407871
      ],
      "type": "VEC2"
    },
    {
      "bufferView": 0,
      "byteOffset": 1406532,
      "componentType": 5125,
      "count": 346221,
      "type": "SCALAR"
    },
    {
      "bufferView": 2,
      "byteOffset": 3145536,
      "componentType": 5126,
      "count": 65532,
      "max": [
        0.7553539872169495,
        4.580945014953613,
        0.3948580026626587
      ],
      "min": [
        0.02284100092947483,
        4.082164764404297,
        -0.6157240271568298
      ],
      "type": "VEC3"
    },
    {
      "bufferView": 2,
      "byteOffset": 3931920,
      "componentType": 5126,
      "count": 65532,
      "max": [
        0.999305248260498,
        0.9999722242355347,
        0.999975860118866
      ],
      "min": [
        -0.9998953342437744,
        -0.9999781250953674,
        -0.9999852180480957
      ],
      "type": "VEC3"
    },
    {
      "bufferView": 1,
      "byteOffset": 1048512,
      "componentType": 5126,
      "count": 65532,
      "max": [
        0.9878569841384888,
        0.9999809861183167
      ],
      "min": [
        0.03054800070822239,
        0.02238300070166588
      ],
      "type": "VEC2"
    },
    {
      "bufferView": 0,
      "byteOffset": 2791416,
      "componentType": 5125,
      "count": 346479,
      "type": "SCALAR"
    },
    {
      "bufferView": 2,
      "byteOffset": 4718304,
      "componentType": 5126,
      "count": 65532,
      "max": [
        0.7977160215377808,
        4.610564231872559,
        0.32971298694610596
      ],
      "min": [
        -0.09919700026512146,
        4.038656234741211,
        -0.5662980079650879
      ],
      "type": "VEC3"
    },
    {
      "bufferView": 2,
      "byteOffset": 5504688,
      "componentType": 5126,
      "count": 65532,
      "max": [
        0.9999978542327881,
        0.999963104724884,
        0.9986332654953003
      ],
      "min": [
        -0.9999882578849792,
        -0.9999962449073792,
        -0.999244749546051
      ],
      "type": "VEC3"
    },
    {
      "bufferView": 1,
      "byteOffset": 1572768,
      "componentType": 5126,
      "count": 65532,
      "max": [
        0.9881229996681213,
        0.9984949827194214
      ],
      "min": [
        0.010851999744772911,
        0.003341000061482191
      ],
      "type": "VEC2"
    },
    {
      "bufferView": 0,
      "byteOffset": 4177332,
      "componentType": 5125,
      "count": 324447,
      "type": "SCALAR"
    },
    {
      "bufferView": 2,
      "byteOffset": 6291072,
      "componentType": 5126,
      "count": 52223,
      "max": [
        0.7971109747886658,
        4.610525131225586,
        0.39479300379753113
      ],
      "min": [
        -0.0669580027461052,
        4.037140846252441,
        -0.618461012840271
      ],
      "type": "VEC3"
    },
    {
      "bufferView": 2,
      "byteOffset": 6917748,
      "componentType": 5126,
      "count": 52223,
      "max": [
        0.9999465346336365,
        0.9999722242355347,
        0.9999698996543884
      ],
      "min": [
        -0.9998601078987122,
        -0.9999962449073792,
        -0.9997657537460327
      ],
      "type": "VEC3"
    },
    {
      "bufferView": 1,
      "byteOffset": 2097024,
      "componentType": 5126,
      "count": 52223,
      "max": [
        0.9875019788742065,
        0.9991340041160583
      ],
      "min": [
        0.00039400000241585076,
        1.9999999494757503e-05
      ],
      "type": "VEC2"
    },
    {
      "bufferView": 0,
      "byteOffset": 5475120,
      "componentType": 5125,
      "count": 147456,
      "type": "SCALAR"
    }
  ],
  "asset": {
    "extras": {
      "author": "Moshe Caine (https://sketchfab.com/mosheca)",
      "license": "CC-BY-4.0 (http://creativecommons.org/licenses/by/4.0/)",
      "source": "https://sketchfab.com/3d-models/salted-sesame-abadi-bagel-3c19226066224859beb78e04ba1b3bb6",
      "title": "Salted Sesame Abadi Bagel"
    },
    "generator": "Sketchfab-12.68.0",
    "version": "2.0"
  },
  "bufferViews": [
    {
      "buffer": 0,
      "byteLength": 6064944,
      "name": "floatBufferViews",
      "target": 34963
    },
    {
      "buffer": 0,
      "byteLength": 2514808,
      "byteOffset": 6064944,
      "byteStride": 8,
      "name": "floatBufferViews",
      "target": 34962
    },
    {
      "buffer": 0,
      "byteLength": 7544424,
      "byteOffset": 8579752,
      "byteStride": 12,
      "name": "floatBufferViews",
      "target": 34962
    }
  ],
  "buffers": [
    {
      "byteLength": 16124176,
      "uri": "scene.bin"
    }
  ],
  "images": [
    {
      "uri": "textures/Bagel_baseColor.jpeg"
    }
  ],
  "materials": [
    {
      "doubleSided": true,
      "name": "Bagel",
      "pbrMetallicRoughness": {
        "baseColorTexture": {
          "index": 0
        },
        "metallicFactor": 0.0
      }
    }
  ],
  "meshes": [
    {
      "name": "Object_0",
      "primitives": [
        {
          "attributes": {
            "NORMAL": 1,
            "POSITION": 0,
            "TEXCOORD_0": 2
          },
          "indices": 3,
          "material": 0,
          "mode": 4
        }
      ]
    },
    {
      "name": "Object_1",
      "primitives": [
        {
          "attributes": {
            "NORMAL": 5,
            "POSITION": 4,
            "TEXCOORD_0": 6
          },
          "indices": 7,
          "material": 0,
          "mode": 4
        }
      ]
    },
    {
      "name": "Object_2",
      "primitives": [
        {
          "attributes": {
            "NORMAL": 9,
            "POSITION": 8,
            "TEXCOORD_0": 10
          },
          "indices": 11,
          "material": 0,
          "mode": 4
        }
      ]
    },
    {
      "name": "Object_3",
      "primitives": [
        {
          "attributes": {
            "NORMAL": 13,
            "POSITION": 12,
            "TEXCOORD_0": 14
          },
          "indices": 15,
          "material": 0,
          "mode": 4
        }
      ]
    },
    {
      "name": "Object_4",
      "primitives": [
        {
          "attributes": {
            "NORMAL": 17,
            "POSITION": 16,
            "TEXCOORD_0": 18
          },
          "indices": 19,
          "material": 0,
          "mode": 4
        }
      ]
    }
  ],
  "nodes": [
    {
      "children": [
        1
      ],
      "matrix": [
        0.9723854064941406,
        0.2330947071313858,
        -0.011555625125765748,
        0.0,
        0.23338095843791962,
        -0.9711926579475403,
        0.048146687448024535,
        0.0,
        -9.71445146547012e-17,
        -0.049513999372720496,
        -0.998773455619812,
        0.0,
        -0.9994611144065857,
        4.000555992126466,
        -4.63965892791748,
        1.0
      ],
      "name": "Sketchfab_model"
    },
    {
      "children": [
        2,
        3,
        4,
        5,
        6
      ],
      "name": "Bagel.obj.cleaner.materialmerger.gles"
    },
    {
      "mesh": 0,
      "name": "Object_2"
    },
    {
      "mesh": 1,
      "name": "Object_3"
    },
    {
      "mesh": 2,
      "name": "Object_4"
    },
    {
      "mesh": 3,
      "name": "Object_5"
    },
    {
      "mesh": 4,
      "name": "Object_6"
    }
  ],
  "samplers": [
    {
      "magFilter": 9729,
      "minFilter": 9987,
      "wrapS": 10497,
      "wrapT": 10497
    }
  ],
  "scene": 0,
  "scenes": [
    {
      "name": "Sketchfab_Scene",
      "nodes": [
        0
      ]
    }
  ],
  "textures": [
    {
      "sampler": 0,
      "source": 0
    }
  ]
}
